#!OML:ASF F:\VICON\USERDATA\INSTALL\rory3\rory3.ASF
:FULLY-SPECIFIED
:DEGREES
908
root -1.37661 17.3031 -1.6737 -177.109 -163.063 185.002
lowerback 22.2872 1.92467 -6.04053
upperback 8.16063 0.966697 -2.81202
thorax -3.54329 0.390951 0.176218
lowerneck -0.88474 1.56887 -10.8929
upperneck 4.36324 1.93246 10.574
head 1.20645 0.976526 4.99372
rclavicle 2.16675e-014 -3.61788e-014
rhumerus 41.4277 9.14397 -82.3264
rradius 123.672
rwrist -15.623
rhand -43.7614 11.5493
rfingers 7.12502
rthumb -16.5915 -17.7615
lclavicle 2.16675e-014 -3.61788e-014
lhumerus 35.6573 -9.70477 77.1293
lradius 119.009
lwrist 5.75488
lhand -30.1136 13.9455
lfingers 7.12502
lthumb -3.42718 43.8977
rfemur -40.2912 10.923 7.57198
rtibia 84.8641
rfoot -17.5168 -19.0596
rtoes 1.83983
lfemur -50.5283 21.4646 -37.5785
ltibia 68.0601
lfoot 15.8705 -13.3973
ltoes 6.98773
909
root -1.36259 17.2412 -1.67526 -177.55 -162.944 185.304
lowerback 22.19 2.07429 -6.56798
upperback 8.17179 1.03936 -3.13301
thorax -3.48217 0.421641 0.111773
lowerneck -1.07803 1.5652 -10.3352
upperneck 4.43138 1.92068 10.7611
head 1.26216 0.987461 4.96139
rclavicle 2.56432e-014 -9.54166e-015
rhumerus 41.4016 8.57398 -82.6657
rradius 123.381
rwrist -15.5311
rhand -43.7076 10.9009
rfingers 7.12502
rthumb -16.5397 -18.4142
lclavicle 2.56432e-014 -9.54166e-015
lhumerus 35.7129 -10.0966 77.1889
lradius 118.708
lwrist 5.62075
lhand -30.0788 13.7193
lfingers 7.12502
lthumb -3.39357 43.672
rfemur -41.3181 10.2784 8.71208
rtibia 85.7296
rfoot -17.577 -15.2381
rtoes -4.71873
lfemur -50.147 20.1338 -35.141
ltibia 71.0475
lfoot 13.2802 -10.8483
ltoes 1.33086
910
root -1.34589 17.167 -1.67081 -178.037 -162.973 185.708
lowerback 22.0109 2.1139 -7.07634
upperback 8.13598 0.978081 -3.5369
thorax -3.42265 0.389338 -0.0187891
lowerneck -1.01424 1.61912 -9.93697
upperneck 4.45295 1.96333 11.0939
head 1.2524 1.01882 4.99771
rclavicle -1.35174e-014 5.40694e-014
rhumerus 41.1476 8.00635 -83.1115
rradius 123.242
rwrist -15.5173
rhand -43.8379 10.9214
rfingers 7.12502
rthumb -16.6652 -18.3831
lclavicle -1.35174e-014 5.40694e-014
lhumerus 35.8426 -10.4825 77.032
lradius 118.438
lwrist 5.61438
lhand -30.1734 14.2273
lfingers 7.12502
lthumb -3.48494 44.1786
rfemur -42.015 9.4388 9.81188
rtibia 86.1064
rfoot -17.3941 -12.1056
rtoes -10.3283
lfemur -49.4745 18.4746 -32.6946
ltibia 74.0353
lfoot 11.805 -9.07456
ltoes 1.9367
911
root -1.32777 17.075 -1.66228 -178.498 -163.162 186.11
lowerback 21.7342 2.11393 -7.65351
upperback 8.11042 0.87181 -3.85391
thorax -3.30113 0.331402 -0.00467851
lowerneck -0.766184 1.62238 -9.80448
upperneck 4.30699 1.93719 11.5531
head 1.16628 1.00783 5.11351
rclavicle -2.94201e-014 7.15625e-015
rhumerus 40.9517 7.46166 -83.4102
rradius 123.164
rwrist -15.6553
rhand -44.0178 11.5957
rfingers 7.12502
rthumb -16.8383 -17.6942
lclavicle -2.94201e-014 7.15625e-015
lhumerus 36.1925 -10.7312 76.9085
lradius 118.119
lwrist 5.86375
lhand -30.2267 14.65
lfingers 7.12502
lthumb -3.53642 44.6004
rfemur -42.4905 8.56343 10.9107
rtibia 85.8921
rfoot -17.4047 -8.91805
rtoes -8.68515
lfemur -48.6838 16.4022 -30.1476
ltibia 76.82
lfoot 11.289 -10.3337
ltoes 0.75969
912
root -1.30945 16.9777 -1.64138 -179.039 -163.571 186.44
lowerback 21.3736 2.02445 -8.13992
upperback 8.16387 0.691758 -4.12833
thorax -3.04564 0.232572 0.0235996
lowerneck -0.640676 1.57688 -9.6137
upperneck 4.24832 1.85351 11.9048
head 1.13446 0.970421 5.18838
rclavicle 1.94809e-014 4.37326e-014
rhumerus 40.8625 6.93778 -83.6434
rradius 123.176
rwrist -15.9095
rhand -44.2514 11.7152
rfingers 7.12502
rthumb -17.0632 -17.5555
lclavicle 1.94809e-014 4.37326e-014
lhumerus 36.5663 -10.8047 76.8637
lradius 117.846
lwrist 6.4412
lhand -30.1666 14.3601
lfingers 7.12502
lthumb -3.47834 44.3115
rfemur -42.4119 7.69324 12.0405
rtibia 84.9123
rfoot -17.8206 -5.33855
rtoes -10.4446
lfemur -47.6271 13.9049 -27.4161
ltibia 79.2685
lfoot 11.9383 -12.2245
ltoes -0.672032
913
root -1.29385 16.881 -1.6064 -179.714 -164.107 186.956
lowerback 20.7979 1.89443 -8.68088
upperback 8.33147 0.485928 -4.50247
thorax -2.55106 0.110958 -0.0167389
lowerneck -0.669538 1.51858 -9.32134
upperneck 4.30197 1.75756 12.1636
head 1.16471 0.932192 5.21999
rclavicle 2.90226e-014 2.22639e-014
rhumerus 40.7832 6.36885 -83.9614
rradius 123.362
rwrist -16.393
rhand -44.1667 11.3345
rfingers 7.12502
rthumb -16.9817 -17.9432
lclavicle 2.90226e-014 2.22639e-014
lhumerus 36.9463 -10.9075 76.7291
lradius 117.649
lwrist 6.89157
lhand -29.9883 14.1492
lfingers 7.12502
lthumb -3.30615 44.1033
rfemur -41.8044 6.81688 12.9083
rtibia 83.2623
rfoot -18.1606 -1.28366
rtoes -13.2861
lfemur -46.2306 11.0668 -24.9418
ltibia 81.2403
lfoot 12.8637 -14.2872
ltoes -0.560671
914
root -1.27916 16.7807 -1.56978 -180.272 -164.625 187.445
lowerback 20.0584 1.77714 -9.2593
upperback 8.48427 0.323772 -4.83493
thorax -1.98852 0.00502601 -0.00335608
lowerneck -0.602435 1.50689 -9.12533
upperneck 4.31308 1.72127 12.4601
head 1.15866 0.919533 5.27834
rclavicle -3.18055e-015 1.66979e-014
rhumerus 40.7006 5.81782 -84.215
rradius 123.598
rwrist -16.8842
rhand -44.0993 10.7348
rfingers 7.12502
rthumb -16.9168 -18.5484
lclavicle -3.18055e-015 1.66979e-014
lhumerus 37.2278 -11.164 76.6917
lradius 117.431
lwrist 6.67233
lhand -30.0107 14.3058
lfingers 7.12502
lthumb -3.3278 44.2596
rfemur -41.0179 6.06475 13.7608
rtibia 81.116
rfoot -18.9074 2.47553
rtoes -17.7516
lfemur -44.7966 8.00152 -22.5975
ltibia 82.6476
lfoot 11.8195 -14.9802
ltoes -4.60599
915
root -1.26466 16.6738 -1.53181 -180.673 -165.053 187.712
lowerback 19.1887 1.67156 -9.64221
upperback 8.59186 0.241166 -5.1016
thorax -1.41331 -0.0605161 -0.0470586
lowerneck -0.346302 1.49155 -9.02067
upperneck 4.2571 1.67455 12.7662
head 1.1018 0.893462 5.35265
rclavicle -3.10104e-014 -6.83819e-014
rhumerus 40.6693 5.26464 -84.4139
rradius 123.736
rwrist -17.0375
rhand -44.2854 10.9324
rfingers 7.12502
rthumb -17.0959 -18.3354
lclavicle -3.10104e-014 -6.83819e-014
lhumerus 37.4354 -11.5882 76.7549
lradius 117.202
lwrist 6.20779
lhand -30.3943 14.5325
lfingers 7.12502
lthumb -3.69825 44.4801
rfemur -40.1337 5.36517 14.7887
rtibia 79.0057
rfoot -21.1229 5.95735
rtoes -5.85991
lfemur -43.3337 4.84828 -20.1568
ltibia 83.4304
lfoot 10.5007 -15.9597
ltoes -6.46343
916
root -1.25313 16.5774 -1.48183 -180.963 -165.285 187.915
lowerback 17.9815 1.5951 -9.97436
upperback 8.72975 0.266614 -5.3615
thorax -0.635213 -0.0814397 -0.130734
lowerneck -0.178234 1.43631 -8.9621
upperneck 4.22329 1.58281 12.9877
head 1.0719 0.845837 5.40959
rclavicle 1.35174e-014 -1.27222e-014
rhumerus 40.8294 4.75053 -84.603
rradius 123.831
rwrist -16.9529
rhand -44.4291 11.2798
rfingers 7.12502
rthumb -17.2343 -17.9759
lclavicle 1.35174e-014 -1.27222e-014
lhumerus 37.7155 -11.8207 76.7327
lradius 116.995
lwrist 5.91621
lhand -30.6201 14.4467
lfingers 7.12502
lthumb -3.91627 44.3905
rfemur -39.3091 4.54898 15.8154
rtibia 77.7195
rfoot -24.8815 3.99011
rtoes 7.07846
lfemur -41.6219 1.72228 -17.8244
ltibia 83.3668
lfoot 8.90405 -17.3704
ltoes -8.44724
917
root -1.24498 16.485 -1.42165 -181.193 -165.351 188.222
lowerback 18.2471 2.01962 -11.2163
upperback 7.74328 0.501379 -4.87262
thorax -1.85075 0.070521 1.02391
lowerneck 0.228093 1.18587 -9.71309
upperneck 5.27925 1.13704 12.9582
head 1.35578 0.610115 5.53432
rclavicle -1.11319e-014 1.43125e-014
rhumerus 39.5477 4.28262 -83.6298
rradius 124.033
rwrist -17.1137
rhand -44.4768 11.2263
rfingers 7.12502
rthumb -17.2802 -18.0254
lclavicle -1.11319e-014 1.43125e-014
lhumerus 36.3334 -12.3964 78.2205
lradius 116.835
lwrist 5.53101
lhand -30.7146 14.2682
lfingers 7.12502
lthumb -4.00757 44.2103
rfemur -38.7221 3.57867 16.727
rtibia 77.6817
rfoot -27.7822 -5.7938
rtoes -6.87858
lfemur -39.6239 -1.40082 -15.8332
ltibia 82.3224
lfoot 7.42899 -18.8212
ltoes -7.63522
918
root -1.23479 16.3929 -1.35297 -181.443 -165.21 188.647
lowerback 17.0232 2.08069 -11.7808
upperback 7.63687 0.668778 -5.12706
thorax -1.3346 0.126679 1.04891
lowerneck 0.173209 1.02839 -9.86015
upperneck 5.8477 0.873359 13.1533
head 1.5577 0.486979 5.62577
rclavicle -6.75868e-015 3.4191e-014
rhumerus 39.4519 3.86135 -83.6427
rradius 124.223
rwrist -17.1029
rhand -44.8874 11.6895
rfingers 7.12502
rthumb -17.6753 -17.5271
lclavicle -6.75868e-015 3.4191e-014
lhumerus 36.2657 -12.5413 78.2418
lradius 116.635
lwrist 5.32156
lhand -30.6313 14.3701
lfingers 7.12502
lthumb -3.92707 44.3136
rfemur -38.2936 2.58425 17.4742
rtibia 78.5778
rfoot -29.4549 -9.86759
rtoes -5.86226
lfemur -37.2663 -4.51168 -14.2441
ltibia 80.3085
lfoot 5.63968 -20.2443
ltoes -9.16167
